<?xml version="1.0" encoding="UTF-8" standalone="no"?><!DOCTYPE svg PUBLIC "-//W3C//DTD SVG 1.1//EN" "http://www.w3.org/Graphics/SVG/1.1/DTD/svg11.dtd"><svg width="100%" height="100%" viewBox="0 0 492 290" version="1.1" xmlns="http://www.w3.org/2000/svg" xmlns:xlink="http://www.w3.org/1999/xlink" xml:space="preserve" xmlns:serif="http://www.serif.com/" style="fill-rule:evenodd;clip-rule:evenodd;stroke-linejoin:round;stroke-miterlimit:1.41421;"><path id="v" d="M245.97,288.929c-3.122,-0.007 -6.242,-1.201 -8.622,-3.581l-232.696,-232.696c-4.775,-4.775 -4.775,-12.529 0,-17.304l29.963,-29.963c4.775,-4.775 12.528,-4.775 17.303,0l194.082,194.082l194.082,-194.082c4.775,-4.775 12.528,-4.775 17.303,0l29.963,29.963c4.775,4.776 4.775,12.529 0,17.304l-232.696,232.696c-2.38,2.38 -5.5,3.574 -8.622,3.581l-0.03,0.001c0,0 -0.03,-0.001 -0.03,-0.001Z" style="fill:#cbcbcb;"/></svg>